<svg xmlns="http://www.w3.org/2000/svg" x="0px" y="0px" width="100" height="100" viewBox="0,0,256,256">
<g fill="none" fill-rule="nonzero" stroke="#393939" stroke-width="3" stroke-linecap="round" stroke-linejoin="round" stroke-miterlimit="10" stroke-dasharray="" stroke-dashoffset="0" font-family="none" font-weight="none" font-size="none" text-anchor="none" style="mix-blend-mode: normal"><g transform="scale(5.33333,5.33333)"><path d="M31.5,12.5h7c1.7,0 3,1.3 3,3v23c0,1.7 -1.3,3 -3,3h-29c-1.7,0 -3,-1.3 -3,-3v-6.8"></path><path d="M6.5,21.9v-6.4c0,-1.7 1.3,-3 3,-3h15"></path><path d="M16.5,12.5v-4c0,-1.1 0.9,-2 2,-2h11c1.1,0 2,0.9 2,2v4"></path><path d="M21,27.5h-8.9c-3.1,0 -5.6,-2.5 -5.6,-5.6v-5.2"></path><path d="M30.8,27.5h-3.8"></path><path d="M41.5,19.7v2.3c0,3.1 -2.5,5.6 -5.6,5.6h-5.2"></path><rect x="21" y="24.5" width="6" height="6"></rect></g></g>
</svg>