<!DOCTYPE svg PUBLIC "-//W3C//DTD SVG 1.1//EN" "http://www.w3.org/Graphics/SVG/1.1/DTD/svg11.dtd">
<!-- Uploaded to: SVG Repo, www.svgrepo.com, Transformed by: SVG Repo Mixer Tools -->
<svg width="800px" height="800px" viewBox="0 -11 64 64" version="1.1" xmlns="http://www.w3.org/2000/svg" xmlns:xlink="http://www.w3.org/1999/xlink" xmlns:sketch="http://www.bohemiancoding.com/sketch/ns" fill="#393939" stroke="#393939">
<g id="SVGRepo_bgCarrier" stroke-width="0"/>
<g id="SVGRepo_tracerCarrier" stroke-linecap="round" stroke-linejoin="round"/>
<g id="SVGRepo_iconCarrier"> <title>Color-palette</title> <desc>Created with Sketch.</desc> <defs> </defs> <g id="Page-1" stroke="none" stroke-width="1" fill="none" fill-rule="evenodd" sketch:type="MSPage"> <g id="Color-palette" sketch:type="MSLayerGroup" transform="translate(1.000000, 1.000000)" stroke="#393939" stroke-width="2"> <path d="M62,20 C62,31 48.1,40 31,40 C7,40 24,28.3 21,23.4 C17,17 0,36.1 0,20 C0,9 13.9,0 31,0 C48.1,0 62,9 62,20 L62,20 Z" id="Shape" sketch:type="MSShapeGroup"> </path> <ellipse id="Oval" sketch:type="MSShapeGroup" cx="31.5" cy="6.5" rx="4.5" ry="2.5"> </ellipse> <ellipse id="Oval" sketch:type="MSShapeGroup" cx="17.5" cy="8.5" rx="4.5" ry="2.5"> </ellipse> <ellipse id="Oval" sketch:type="MSShapeGroup" cx="33.5" cy="34.5" rx="4.5" ry="2.5"> </ellipse> <ellipse id="Oval" sketch:type="MSShapeGroup" cx="47.5" cy="29.5" rx="4.5" ry="2.5"> </ellipse> <ellipse id="Oval" sketch:type="MSShapeGroup" cx="45.5" cy="9.5" rx="4.5" ry="2.5"> </ellipse> <ellipse id="Oval" sketch:type="MSShapeGroup" cx="53.5" cy="18.5" rx="4.5" ry="2.5"> </ellipse> </g> </g> </g>
</svg>