<svg xmlns="http://www.w3.org/2000/svg" x="0px" y="0px" width="100" height="100" viewBox="0,0,256,256">
<g transform=""><g fill="none" fill-rule="nonzero" stroke="#393939" stroke-width="3" stroke-linecap="round" stroke-linejoin="round" stroke-miterlimit="10" stroke-dasharray="" stroke-dashoffset="0" font-family="none" font-weight="none" font-size="none" text-anchor="none" style="mix-blend-mode: normal"><g transform="translate(-8.61351,0) scale(5.33333,5.33333)"><path d="M5.5,18.7v5.6v12.2c0,1.7 1.3,3 3,3h29"></path><path d="M40.5,16.5c0,-1.7 -1.3,-3 -3,-3h-15l-4.9,-4.1c-0.7,-0.6 -1.6,-0.9 -2.6,-0.9h-6.5c-1.7,0 -3,1.3 -3,3v1.5"></path><path d="M16.4,39.5h20.9c1.3,0 2.5,-0.8 3,-2.1l5.3,-13.1c0.5,-1.4 -0.5,-2.9 -2,-2.9h-26.7c-1.3,0 -2.5,0.8 -3,2.1l-0.7,2"></path></g></g></g>
</svg>